<?xml version="1.0" encoding="UTF-8"?>
<svg xmlns="http://www.w3.org/2000/svg" version="1.1" viewBox="0 0 324.59 103.19">
  <defs>
    <style>
      .cls-1 {
        fill: #ff5b00;
      }

      .cls-2 {
        fill: #3d3d3d;
      }
    </style>
  </defs>
  <!-- Generator: Adobe Illustrator 28.7.1, SVG Export Plug-In . SVG Version: 1.2.0 Build 142)  -->
  <g>
    <g id="Ebene_1">
      <g>
        <g>
          <path class="cls-2" d="M48.94,47.64c-1.33-1.78-3.08-3.11-5.23-3.98-2.16-.87-4.8-1.61-7.95-2.19-3.11-.59-5.4-1.1-6.89-1.51-1.48-.43-2.62-1-3.44-1.69-.81-.69-1.2-1.68-1.2-2.93,0-1.76.67-3.11,2.02-4.05,1.33-.95,3.14-1.41,5.38-1.41,2.43,0,4.39.61,5.87,1.84,1.48,1.25,2.34,2.88,2.57,4.9h9.9c-.03-2.85-.86-5.38-2.45-7.63-1.6-2.24-3.78-4.01-6.55-5.28-2.76-1.28-5.87-1.92-9.34-1.92s-6.38.61-9.06,1.86c-2.68,1.23-4.77,2.93-6.27,5.08-1.51,2.15-2.25,4.61-2.25,7.35,0,3.01.66,5.43,1.97,7.24,1.33,1.83,3.06,3.21,5.17,4.13,2.12.92,4.72,1.66,7.83,2.25,3.14.63,5.46,1.15,6.97,1.58,1.5.43,2.66,1.02,3.5,1.76.84.74,1.25,1.74,1.25,2.99,0,1.81-.76,3.21-2.25,4.21-1.51,1.02-3.45,1.53-5.84,1.53-2.88,0-5.18-.71-6.91-2.14-1.73-1.41-2.7-3.29-2.86-5.63l-9.92-.13c.05,3.01.9,5.72,2.57,8.16,1.66,2.43,3.96,4.33,6.91,5.69,2.94,1.38,6.3,2.06,10.08,2.06,3.5,0,6.66-.64,9.48-1.94,2.8-1.32,5-3.09,6.56-5.36,1.58-2.27,2.37-4.85,2.37-7.73s-.66-5.33-1.99-7.11Z"/>
          <path class="cls-2" d="M86.1,38.1c-2.63-2.52-6-3.78-10.08-3.78s-7.7,1.56-10.25,4.66v-16.8h-9.51v47.21h9.51v-17.8c0-2.98.67-5.28,2.06-6.96,1.37-1.66,3.27-2.48,5.69-2.48s4.1.76,5.26,2.25c1.17,1.51,1.74,3.7,1.74,6.58v18.41h9.51v-18.82c0-5.79-1.3-9.95-3.93-12.47Z"/>
          <path class="cls-2" d="M128.98,42.76c-1.51-2.7-3.65-4.79-6.42-6.25-2.76-1.45-5.95-2.19-9.61-2.19s-6.84.74-9.61,2.19c-2.76,1.46-4.9,3.55-6.4,6.25-1.51,2.7-2.27,5.79-2.27,9.29s.76,6.61,2.27,9.31c1.5,2.7,3.64,4.79,6.4,6.23,2.76,1.46,5.97,2.19,9.61,2.19s6.84-.72,9.61-2.19c2.76-1.45,4.9-3.52,6.42-6.2,1.5-2.66,2.25-5.79,2.25-9.34s-.76-6.6-2.25-9.29ZM119.26,59.27c-1.55,1.84-3.65,2.76-6.3,2.76s-4.69-.92-6.23-2.76-2.32-4.24-2.32-7.22.77-5.36,2.32-7.21,3.64-2.76,6.23-2.76,4.75.92,6.3,2.76c1.56,1.84,2.34,4.24,2.34,7.21s-.77,5.38-2.34,7.22Z"/>
          <path class="cls-2" d="M172.3,48.89c-.13-1.02-.33-1.99-.59-2.93-.33-1.12-.74-2.19-1.25-3.21-1.38-2.7-3.26-4.79-5.68-6.25-2.4-1.45-5.15-2.19-8.26-2.19-2.39,0-4.47.48-6.3,1.41-1.83.95-3.32,2.2-4.49,3.78l-.94-4.79h-8.29v48.15h9.51v-17.88c2.52,3.21,6,4.79,10.45,4.79,3.11,0,5.87-.72,8.29-2.19,2.43-1.45,4.33-3.52,5.71-6.17,1.37-2.65,2.06-5.76,2.06-9.31,0-1.12-.07-2.19-.21-3.22ZM160.5,59.24c-1.58,1.86-3.64,2.8-6.2,2.8s-4.61-.92-6.14-2.76c-1.53-1.84-2.29-4.28-2.29-7.29s.76-5.36,2.29-7.17c1.53-1.83,3.57-2.73,6.14-2.73s4.62.9,6.2,2.73c1.58,1.81,2.37,4.21,2.37,7.17s-.79,5.4-2.37,7.25Z"/>
          <path class="cls-2" d="M229.25,48.55c-1.91-1.79-4.61-2.91-8.13-3.37,2.98-.54,5.26-1.71,6.88-3.5,1.63-1.79,2.43-4.16,2.43-7.07,0-3.96-1.51-7.02-4.52-9.18-3.01-2.15-7.25-3.24-12.73-3.24h-17.95v1.38c0,3.63,2.95,6.58,6.58,6.58h11.63c2.15,0,3.85.53,5.05,1.55,1.22,1.04,1.83,2.43,1.83,4.19s-.61,3.14-1.83,4.18c-1.2,1.04-2.9,1.55-5.05,1.55h-11.63c-3.63,0-6.58,2.95-6.58,6.58v21.2h18.82c5.76,0,10.2-1.18,13.36-3.54,3.14-2.37,4.72-5.61,4.72-9.75,0-3.22-.97-5.74-2.88-7.55ZM219.74,59.82c-1.32,1.04-3.19,1.55-5.63,1.55h-8.77v-11.94h8.77c2.39,0,4.24.54,5.59,1.6,1.35,1.05,2.02,2.55,2.02,4.47s-.66,3.29-1.99,4.33Z"/>
          <path class="cls-2" d="M238.05,34.73v34.66h9.51v-34.66h-9.51ZM246.75,21.82c-1.04-1.02-2.34-1.51-3.92-1.51s-2.88.49-3.93,1.51c-1.07,1-1.6,2.29-1.6,3.8s.53,2.81,1.6,3.85c1.05,1.04,2.37,1.55,3.93,1.55s2.88-.51,3.92-1.55c1.04-1.04,1.55-2.32,1.55-3.85s-.51-2.8-1.55-3.8Z"/>
          <path class="cls-2" d="M269.27,61.36c-1.22,0-2.07-.26-2.6-.81-.51-.54-.77-1.41-.77-2.63v-15.17h7.9v-8.03h-7.9v-9.71h-9.51v9.71h-5.72v8.03h5.72v16.71c0,6.61,3.31,9.92,9.92,9.92h7.9v-8.03h-4.94Z"/>
          <path class="cls-2" d="M311.35,54.22c.18-.95.28-2.02.28-3.24-.05-3.37-.82-6.3-2.34-8.8-1.5-2.5-3.6-4.43-6.27-5.81-2.68-1.37-5.77-2.06-9.28-2.06s-6.5.74-9.13,2.19c-2.63,1.46-4.67,3.54-6.14,6.22-1.46,2.66-2.19,5.81-2.19,9.39s.74,6.68,2.25,9.34c1.5,2.68,3.67,4.74,6.46,6.17,2.81,1.45,6.15,2.15,10.02,2.15,2.98,0,5.59-.53,7.9-1.58,2.29-1.05,4.13-2.5,5.53-4.34,1.4-1.84,2.27-3.92,2.63-6.2h-9.38c-.41,1.61-1.25,2.83-2.53,3.67-1.28.84-2.88,1.25-4.82,1.25-2.42,0-4.34-.72-5.72-2.15-1.4-1.45-2.2-3.42-2.43-5.94v-.26h25.15ZM288.93,43.19c1.41-1.18,3.16-1.78,5.23-1.78s3.95.56,5.36,1.71c1.41,1.15,2.27,2.78,2.6,4.89h-15.73c.28-2.02,1.12-3.62,2.53-4.82Z"/>
        </g>
        <path class="cls-1" d="M201.49,35.93c-5.83,1.79-10.39,6.49-11.97,12.42-1.58-5.92-6.13-10.63-11.97-12.42,5.83-1.79,10.39-6.49,11.97-12.42,1.58,5.92,6.13,10.63,11.97,12.42Z"/>
      </g>
    </g>
  </g>
</svg>